<?xml version="1.0" encoding="utf-8"?>
<svg version="1.1" xmlns:xlink="http://www.w3.org/1999/xlink" width="15px" height="26px" xmlns="http://www.w3.org/2000/svg">
  <g transform="matrix(1 0 0 1 -523 -408 )">
    <path d="M 14.118982499999996 10.427131764705887  C 14.314289908967819 10.067132607547443  14.308273401278418 9.628655563845129  14.103164999999999 9.27436823529412  C 13.898192862594106 8.920123427559828  13.524871705202074 8.702701008683592  13.121482499999997 8.702635882352943  L 9.629377499999997 8.702635882352943  L 13.676662499999997 2.062549411764705  C 13.8951631700924 1.7041564058977607  13.905909260250363 1.2531479113494302  13.704734999999996 0.8843594117647063  C 13.503726259062052 0.5154242419440963  13.12229875811345 0.286652457403543  12.708374999999995 0.286764705882353  L 4.158374999999997 0.286764705882353  C 3.610095788735608 0.2867582885994531  3.1394716540544665 0.6847022499281937  3.038039999999996 1.234082352941176  L 0.7580399999999954 13.579578235294116  C 0.6952716443872822 13.919497766680172  0.7842791174444601 14.270259150653725  1.0008599999999968 14.536485294117648  C 1.217366244092903 14.802897755520359  1.5390418739273666 14.957089176580416  1.8783749999999964 14.957111764705882  L 5.124097499999997 14.957111764705882  L 4.034827499999996 24.415468235294117  C 4.029649881324582 24.460443603509898  4.02705443561144 24.505689045632018  4.02705443561144 24.550973182719165  C 4.02705443561144 25.192922986051894  4.5374498208043335 25.71332612389563  5.167054435611438 25.71332612389563  C 5.582043239354159 25.71332612389563  5.964250968271475 25.483395159412837  6.164917499999997 25.11302529411765  L 14.118982499999996 10.427131764705887  Z " fill-rule="nonzero" fill="#ff8a00" stroke="none" transform="matrix(1 0 0 1 523 408 )" />
  </g>
</svg>