<?xml version="1.0" encoding="utf-8"?>
<svg version="1.1" xmlns:xlink="http://www.w3.org/1999/xlink" width="30px" height="31px" xmlns="http://www.w3.org/2000/svg">
  <g transform="matrix(1 0 0 1 -579 -435 )">
    <path d="M 29.01181526367187 22.42857141308594  C 29.011815299804685 19.082999688476562  24.56791331738281 8.966800095703125  24.56791328125 8.966800131835939  C 24.56791328125 8.966800131835939  20.124011334960937 19.082999724609376  20.124011334960937 22.42857141308594  C 20.124011334960937 25.774143137695315  22.114734909179685 28.487452394531253  24.56791328125 28.487452394531253  C 27.021091653320312 28.487452394531253  29.01181522753906 25.774143137695315  29.01181526367187 22.42857141308594  Z M 16.113660791015626 21.388048054687502  C 16.113660791015626 16.272141413085937  8.056830395507813 0.7979689658203153  8.056830395507813 0.7979689658203126  C 8.056830395507813 0.7979689658203126  0 16.272141376953126  0 21.388048054687502  C 0 26.507567616210938  3.6057025732421875 30.65520947851563  8.056830395507813 30.655209442382812  C 12.507958217773439 30.655209406250002  16.113660791015626 26.50756761621094  16.113660791015626 21.388048054687502  Z " fill-rule="nonzero" fill="#ffffff" stroke="none" transform="matrix(1 0 0 1 579 435 )" />
  </g>
</svg>