<?xml version="1.0" encoding="utf-8"?>
<svg version="1.1" xmlns:xlink="http://www.w3.org/1999/xlink" width="28px" height="31px" xmlns="http://www.w3.org/2000/svg">
  <g transform="matrix(1 0 0 1 -981 -434 )">
    <path d="M 1.2106629629629424 0.8145250000000033  C -1.3869074074074164 13.873275000000035  0.17790370370372938 25.488974999999982  14.00482222222225 30.196325  C 27.832544444444448 25.488974999999982  29.397355555555535 13.873275000000035  26.798981481481498 0.8145250000000033  C 18.44367777777781 2.260674999999992  9.566770370370367 2.1940250000000106  1.2106629629629424 0.8145250000000033  Z M 12.810518518518528 10.66089999999997  L 13.586896296296302 11.228974999999991  L 13.172988888888867 12.079925000000003  C 12.366070370370355 13.739199999999983  10.40342592592594 14.897825000000012  8.401400000000026 14.897825000000012  C 7.1805740740740776 14.897825000000012  6.09155555555558 14.452975000000038  5.333662962962948 13.645425000000046  C 4.688288888888884 12.95799999999997  3.968170370370394 11.659099999999967  4.204459259259272 9.379824999999983  L 4.299296296296318 8.466874999999959  L 5.241237037037056 8.34287500000005  C 7.711018518518536 8.018149999999991  10.270814814814813 8.799350000000004  12.810518518518528 10.66089999999997  Z M 24.084874074074058 8.466099999999983  L 24.178907407407422 9.37827500000003  C 24.415196296296305 11.65832499999999  23.695077777777755 12.957224999999994  23.050507407407427 13.644649999999956  C 22.291811111111116 14.452975000000038  21.20279259259262 14.897825000000012  19.98277037037035 14.897825000000012  C 17.97994074074076 14.897825000000012  16.016492592592606 13.739199999999983  15.21037777777777 12.080699999999979  L 14.795666666666657 11.229749999999967  L 15.572044444444431 10.66089999999997  C 18.112551851851826 8.80012499999998  20.665918518518495 8.018149999999991  23.14293333333332 8.34209999999996  L 24.084874074074058 8.466099999999983  Z M 19.98277037037035 12.572824999999966  C 20.35810000000002 12.572824999999966  20.883722222222232 12.488349999999969  21.26226666666668 12.085349999999949  C 21.57410370370372 11.752875000000017  21.756544444444472 11.24834999999996  21.803159259259253 10.599675000000047  C 20.588762962962974 10.647725000000037  19.319714814814823 11.06854999999996  18.014500000000005 11.855175000000031  C 18.544140740740726 12.291500000000042  19.273903703703716 12.572824999999966  19.98277037037035 12.572824999999966  Z M 7.121903703703698 12.085349999999949  C 7.500448148148146 12.488349999999969  8.026070370370352 12.572824999999966  8.401400000000026 12.572824999999966  C 9.10946296296298 12.572824999999966  9.839225925925913 12.291500000000042  10.36886666666669 11.855175000000031  C 9.064455555555552 11.069325000000049  7.794603703703724 10.647725000000037  6.581011111111121 10.599675000000047  C 6.627625925925907 11.247574999999983  6.810066666666654 11.752875000000017  7.121903703703698 12.085349999999949  Z " fill-rule="nonzero" fill="#ffffff" stroke="none" transform="matrix(1 0 0 1 981 434 )" />
  </g>
</svg>