<?xml version="1.0" encoding="utf-8"?>
<svg version="1.1" xmlns:xlink="http://www.w3.org/1999/xlink" width="27px" height="23px" xmlns="http://www.w3.org/2000/svg">
  <g transform="matrix(1 0 0 1 -896 -410 )">
    <path d="M 13.86105605801105 22.986139924549363  L 7.986002941988951 10  L 19.30374596685083 10  L 13.86105605801105 22.986139924549363  Z M 8.240334240331492 8  L 9.28309258839779 4.749243828338635  L 17.904923801104975 4.824087449467046  L 19.4309116160221 8  L 8.240334240331492 8  Z M 8.03686920165746 4.6744002072102235  L 6.816078944751381 7.917623862603939  L 0 5.123461933980691  L 3.6623707707182325 2.454039398292315  L 8.03686920165746 4.6744002072102235  Z M 13.403259720994475 22.886348429711482  L 0 6.745073773871311  L 6.460015127071824 9.564183576204028  L 13.403259720994475 22.886348429711482  Z M 14.242553005524865 22.811504808583063  L 20.93146632596685 9.539235702494558  L 26.984551350828735 6.470647163067135  L 14.242553005524865 22.811504808583063  Z M 26.34872310497238 5.098514084658743  L 20.80430067679558 7.892675988894469  L 19.100280928176797 4.44986934382499  L 22.991549892265194 2.3293000297449633  L 26.34872310497238 5.098514084658743  Z M 17.87949067127072 3.1026841391260667  L 9.155926939226518 3.1026841391260667  L 7.6808053839779 2.728466033484011  L 4.9085941574585625 1.206645712818795  L 8.16403485082873 0  L 18.79508337016575 0  L 22.02509093370166 1.381280828785088  L 18.922249019337016 2.853205402031363  L 17.87949067127072 3.1026841391260667  Z " fill-rule="nonzero" fill="#4caf50" stroke="none" transform="matrix(1 0 0 1 896 410 )" />
  </g>
</svg>