<?xml version="1.0" encoding="utf-8"?>
<svg version="1.1" xmlns:xlink="http://www.w3.org/1999/xlink" width="36px" height="24px" xmlns="http://www.w3.org/2000/svg">
  <g transform="matrix(1 0 0 1 -703 -409 )">
    <path d="M 0.5833333457031249 11.841666654296873  C 0.5833333457031249 5.825000000000001  5.491666654296875 0.9166666542968755  11.508333345703125 1  L 24.49166665429687 1  C 30.50833330859375 0.9166666542968755  35.416666654296876 5.825000000000001  35.416666654296876 11.841666654296876  L 35.416666654296876 12.158333345703124  C 35.416666654296876 18.175  30.50833330859375 23.083333345703124  24.49166665429687 23  L 11.508333345703125 23  C 5.491666654296875 23.083333345703124  0.5833333457031249 18.175  0.5833333457031249 12.158333345703124  L 0.5833333457031249 11.841666654296873  Z M 14.041666654296872 10.416666654296872  L 12.933333345703122 10.416666654296876  L 12.933333345703122 9.308333345703126  C 12.933333345703122 8.358333345703125  12.299999999999999 7.725  11.349999999999998 7.725  C 10.399999999999997 7.725  9.766666654296873 8.358333345703125  9.766666654296873 9.308333345703126  L 9.766666654296873 10.416666654296876  L 8.816666654296872 10.416666654296876  C 7.866666654296871 10.416666654296876  7.233333308593748 11.05  7.233333345703121 12  C 7.233333382812496 12.949999999999996  7.866666691406246 13.583333345703124  8.816666654296872 13.583333345703124  L 9.924999999999997 13.583333345703124  L 9.924999999999997 14.691666654296874  C 9.924999999999997 15.641666654296873  10.558333345703122 16.275  11.508333345703125 16.275  C 12.458333345703124 16.275  13.091666691406248 15.64166665429687  13.091666654296873 14.691666654296874  L 13.091666654296873 13.583333345703124  L 14.2 13.583333345703124  C 15.149999999999999 13.583333345703124  15.783333345703124 12.949999999999996  15.783333345703124 11.999999999999996  C 15.783333345703124 11.05  14.991666691406248 10.416666654296872  14.041666654296872 10.416666654296872  Z M 22.591666672851566 12.158056970119517  C 23.728344859872873 12.158056970119517  24.649847376471858 11.23667817677481  24.65 10.100000000000001  C 24.650000018554692 8.96293750751636  23.728452789751596 8.041390278713264  22.591666672851566 8.041390278713264  C 21.454880555951537 8.041390278713264  20.53333332714844 8.96293750751636  20.53333332714844 10.099723624416388  C 20.533485969231272 11.23667817677481  21.454988485830263 12.158056970119517  22.591666672851566 12.158056970119517  Z M 24.491943029880495 14.058333327148432  C 24.491943029880495 15.195011514169739  25.413321823225196 16.11651403076873  26.550000000000004 16.11666665429687  C 27.687062492483648 16.116666672851558  28.608609721286744 15.195119444048466  28.608609721286744 14.058333327148432  C 28.608609721286744 12.921547210248406  27.687062492483648 11.99999998144531  26.550276375583618 11.99999998144531  C 25.413321823225196 12.000152623528137  24.491943029880495 12.921655140127129  24.491943029880495 14.058333327148432  Z " fill-rule="nonzero" fill="#e52e71" stroke="none" transform="matrix(1 0 0 1 703 409 )" />
  </g>
</svg>