<?xml version="1.0" encoding="utf-8"?>
<svg version="1.1" xmlns:xlink="http://www.w3.org/1999/xlink" width="27px" height="27px" xmlns="http://www.w3.org/2000/svg">
  <g transform="matrix(1 0 0 1 -12 -47 )">
    <path d="M 25.031249991210938 19.40625  C 26.437500008789062 18.5625  28.18125 12.65625  25.762500008789065 7.875000008789063  C 21.9375 0.28125000878906253  14.962500008789064 0.7875000087890623  14.962500008789064 0.7875000087890623  L 14.062499991210938 0  C 14.062499991210938 0  13.781249982421876 0.28125000878906253  13.5 0.84375  C 15.300000008789063 1.8562500000000002  15.693750000000001 7.6499999912109375  12.4875 8.156249991210936  C 12.093750008789064 7.874999982421874  11.868749991210937 7.4812499912109365  11.8125 6.862499982421875  L 11.98125 6.974999991210937  L 12.093750008789062 6.6374999912109365  L 11.8125 6.299999991210939  C 11.8125 6.24375  11.8125 6.131249991210937  11.8125 6.075  L 12.15 6.24375  L 12.206249991210937 5.793749991210938  L 11.8125 5.343750008789062  C 11.8125 5.231249999999999  11.756250008789063 5.118750017578125  11.756250008789063 5.0625  L 12.31875 5.23125  L 12.31875 4.781249991210938  L 11.475 4.21875  C 11.418750008789063 4.106249991210937  11.362499991210937 3.9937500087890627  11.30625 3.9374999912109376  L 12.15 3.9374999912109376  L 12.03749999121094 3.5999999912109373  L 10.518749991210937 2.86875  L 11.8125 2.812500008789063  L 11.64375 2.418750017578125  C 11.64375 2.418750017578125  10.518749991210937 2.0250000263671875  9.225000008789063 2.0250000263671875  C 9.45 1.80000003515625  9.843750017578126 1.4062500175781247  10.575000008789063 1.1812500263671875  C 10.63125 0.7312499912109375  10.687499991210936 0.3375  10.687499991210936 0.3375  C 10.687499991210936 0.3375  9.168749991210936 0.6187500087890625  7.931249999999999 1.2374999912109377  C 6.6937500087890625 1.8000000087890624  5.0625 2.812500008789063  5.287499991210937 3.2624999912109374  C 5.23125 3.54375  3.7687499912109375 4.05  3.5999999912109373 4.3875  C 3.4312499912109375 4.725  4.05 5.0062500087890625  4.162499982421875 5.9624999912109375  C 4.837500008789063 5.624999991210938  6.299999991210939 4.500000008789062  6.75 5.456249991210939  C 7.481249991210938 5.56875  9.506249991210936 4.162499982421875  9.45 5.9624999912109375  C 9.393750008789064 7.481249991210938  8.887500008789063 8.324999991210937  8.887500008789063 10.237499982421875  C 8.550000008789063 11.024999991210937  8.550000008789063 11.924999982421875  8.26875 11.868749991210937  C 7.481249991210938 11.193749991210936  6.974999991210939 9.7875  6.974999991210939 9.1125  C 6.974999991210939 8.437500000000002  7.481249991210938 7.6499999912109375  7.481249991210938 7.6499999912109375  L 7.368749982421876 7.481249991210938  L 7.481249991210938 6.974999991210939  L 7.0875 6.581250000000001  L 6.581250000000001 6.637499991210938  L 6.918750000000001 6.8062499912109375  L 6.974999991210939 7.1999999824218746  L 6.75 7.312499991210937  L 6.75 6.974999991210937  L 6.525000008789063 6.918749999999999  L 6.187500008789062 6.468749991210937  L 5.56875 6.3562499824218746  L 5.456249991210937 6.5812499736328105  L 5.681249982421875 6.637499964843749  L 5.9062499736328125 7.031249956054687  L 5.5124999824218746 6.918749947265624  L 5.343749982421874 7.143749938476563  L 5.174999982421874 6.9749999384765635  L 4.781249991210936 6.918749947265626  L 4.162499982421874 7.424999947265626  L 4.612499991210939 7.312499991210937  L 4.837499982421875 7.424999999999999  C 4.893749973632812 7.818749991210937  5.1187499912109375 7.706250008789062  5.5124999824218746 8.550000008789063  C 5.9624999912109375 9.393750008789064  5.568749973632812 10.068750008789063  5.568749973632812 10.068750008789063  L 5.174999982421874 10.575000008789063  L 5.343749982421874 11.025000017578122  L 5.1187499912109375 11.137500026367187  L 4.612499991210939 11.08125003515625  L 5.174999982421875 11.531250043945313  L 5.681249982421875 11.250000035156251  L 5.793749991210938 11.418750035156249  L 6.187499982421874 10.68750004394531  C 6.187499982421874 10.68750004394531  6.187499982421874 10.51875004394531  6.356249982421876 10.743750035156248  C 6.693749982421876 12.88125004394531  7.649999991210938 13.668750026367187  7.987499991210938 14.006250026367185  C 7.875000008789063 14.34375  7.312499991210937 14.231249991210937  7.312499991210937 14.231249991210937  C 7.312499991210937 14.231249991210937  7.59375 14.906249991210938  8.493749991210937 14.399999991210937  C 8.831249991210937 14.399999991210937  9.056249982421875 14.231249991210937  9.224999982421878 14.062499991210938  C 9.281249973632812 14.006250000000001  9.393749982421875 13.72499999121094  9.618749973632813 13.556249991210937  C 10.51874996484375 15.01875  11.924999982421875 16.03125  12.262499982421874 16.256249991210936  C 12.431249982421875 16.424999991210935  12.599999982421878 16.537499999999998  12.712499991210937 16.70625  C 12.712499991210937 17.26874999121094  12.712499991210937 18.956249991210942  13.443749982421878 19.350000008789063  C 14.343749973632812 19.856250008789065  9.506249991210936 21.43125  8.437499973632812 18.843750008789062  L 7.874999982421875 18.225  L 7.312499991210937 18.168750008789065  L 7.087499999999999 18.506250008789063  L 7.593749999999998 18.5625  L 6.6374999912109365 18.9  L 6.412499999999999 19.518750008789063  L 6.862500008789062 19.350000008789063  L 7.1437500175781254 19.518750008789063  L 6.24375 20.25  L 6.356250008789063 20.981249991210937  L 6.693750008789064 20.5875  L 6.8625000087890635 20.5875  L 6.918750000000001 20.75625  L 7.143749991210939 20.75625  L 7.4250000000000025 20.531250008789062  L 8.100000000000003 20.531250008789062  L 8.943750000000001 21.20625000878907  L 8.943750000000001 22.05000000878907  L 9.112500000000002 22.275  L 9.1125 22.499999991210938  L 8.718750008789064 22.893749982421873  L 9.225000008789063 22.949999973632814  L 9.675000017578126 22.668749964843755  L 9.787500026367187 22.274999973632813  L 9.956250026367186 21.993749964843754  L 9.956250026367186 21.20624995605469  L 10.012500017578123 20.92499994726563  C 10.012500017578123 20.92499994726563  10.518750017578123 21.43124994726563  12.318750026367185 21.374999956054694  C 14.118750035156248 21.318749964843754  14.793750035156249 20.868749956054696  14.793750035156249 20.868749956054696  C 14.793750035156249 20.868749956054696  15.131250035156247 21.374999956054694  14.73750004394531 21.76874994726563  C 15.412500043945311 22.04999995605469  15.412500043945311 20.699999956054693  15.412500043945311 20.699999956054693  C 15.412500043945311 20.699999956054693  15.75000004394531 20.024999956054696  15.46875003515625 19.687499956054694  C 15.356250026367187 19.349999956054695  15.525000026367186 18.787499964843754  15.862500026367185 18.281249964843756  C 16.425000017578125 18.449999964843755  16.875000026367186 18.67499995605469  17.325000035156247 19.181249956054696  C 18.5625 20.75625  16.875 25.031249991210938  12.937500008789064 25.031249991210938  C 5.625000017578126 25.031249991210938  2.250000017578126 18.843749982421876  2.250000017578126 16.875  C 2.868750026367188 16.875  3.6562500087890637 17.156250008789062  3.6562500087890637 17.156250008789062  C 3.0937500175781265 14.11875000878906  1.4062500175781263 13.5  0 13.5  C 0 20.531250008789062  5.906250000000003 27  12.937500008789064 27  C 19.687500008789062 27  21.375000008789062 22.218750008789062  21.375000008789062 18.5625  C 21.375000008789062 16.312500008789062  20.925 15.35625  19.968750017578127 14.231249991210937  C 19.01250003515625 13.106249982421877  20.531250008789062 12.093749982421876  21.093750026367186 13.781249982421874  C 23.625 14.625000008789062  23.625 18.843750008789062  21.9375 22.162499991210936  C 23.062500008789062 21.374999982421873  23.906250008789062 20.25  24.46875 18.281249991210938  C 24.80625 17.156249982421876  25.3125 17.437499991210938  25.3125 18.281249991210938  C 25.3125 18.956249991210942  25.031249991210938 19.40625  25.031249991210938 19.40625  Z M 6.918749999999999 2.981249982421875  C 6.918749999999999 2.981249982421875  6.24375 3.9937500087890627  5.9624999912109375 3.5999999912109373  C 5.681249982421875 3.20625  6.918749999999999 2.981249982421875  6.918749999999999 2.981249982421875  Z " fill-rule="nonzero" fill="#ffffff" stroke="none" transform="matrix(1 0 0 1 12 47 )" />
  </g>
</svg>