<svg t="1768293740756" class="icon" viewBox="0 0 1024 1024" version="1.1" xmlns="http://www.w3.org/2000/svg" p-id="5955" width="200" height="200"><path d="M106.794667 162.069333c0.576 0.576 1.237333 1.28 1.834666 1.834667l49.834667 222.592 224.426667 190.997333-103.637334 122.176-1.92-1.92-32.426666 32.426667-1.621334-31.722667 17.28-17.450666-2.389333-37.098667-30.165333-30.08-37.333334-2.346667h-0.042666l-17.088 17.109334-17.216 17.237333h-0.042667l-8.618667 8.661333 13.546667 65.472 66.986667 66.986667a45.226667 151.253333 45 0 0-21.034667 25.130667 45.226667 151.253333 45 0 0-0.917333 1.216 45.226667 151.253333 45 0 0-7.04 9.344 45.226667 151.253333 45 0 0-0.170667 0.256 45.226667 151.253333 45 0 0-24.618667 40.981333 45.226667 151.253333 45 0 0-0.085333 0.213333 45.226667 151.253333 45 0 0-4.288 10.709334 48.896 48.896 0 0 0-48.554667 12.266666 48.896 48.896 0 0 0 0 69.162667 48.896 48.896 0 0 0 69.12 0 48.896 48.896 0 0 0 12.501334-47.872 45.226667 151.253333 45 0 0 3.754666-1.322667 45.226667 151.253333 45 0 0 2.56-1.066666 45.226667 151.253333 45 0 0 6.528-2.816 45.226667 151.253333 45 0 0 3.797334-1.877334 45.226667 151.253333 45 0 0 4.864-2.496h0.042666a45.226667 151.253333 45 0 0 36.501334-23.850666 45.226667 151.253333 45 0 0 1.130666-0.853334 45.226667 151.253333 45 0 0 7.381334-5.76 45.226667 151.253333 45 0 0 6.250666-5.013333 45.226667 151.253333 45 0 0 15.274667-13.290667l67.541333 67.541334 65.386667 13.653333 21.12-21.141333 22.293333-21.76-2.410666-37.290667-30.421334-30.378667-36.586666-2.133333-17.792 17.130667-31.253334-2.090667 31.957334-32-1.152-1.173333 132.373333-112.64 132.074667 112.362666-1.173334 1.173334 32 32-31.232 2.090666-17.834666-17.130666-36.586667 2.090666-30.421333 30.421334-2.410667 37.248 22.293333 21.76 21.12 21.162666 65.365334-13.632 67.541333-67.541333a151.253333 45.226667 45 0 0 15.637333 13.546667 151.253333 45.226667 45 0 0 4.949334 3.989333 151.253333 45.226667 45 0 0 9.088 7.082667 151.253333 45.226667 45 0 0 1.002666 0.704 151.253333 45.226667 45 0 0 10.368 7.509333 151.253333 45.226667 45 0 0 30.208 18.24 151.253333 45.226667 45 0 0 4.416 2.218667 151.253333 45.226667 45 0 0 5.461334 2.368 151.253333 45.226667 45 0 0 3.328 1.386666 151.253333 45.226667 45 0 0 3.669333 1.28 48.896 48.896 0 0 0 12.458667 47.872 48.896 48.896 0 0 0 69.162666 0 48.896 48.896 0 0 0 0-69.162666 48.896 48.896 0 0 0-48.533333-12.245334 151.253333 45.226667 45 0 0-29.013333-51.882666 151.253333 45.226667 45 0 0-0.32-0.405334 151.253333 45.226667 45 0 0-7.573334-10.090666 151.253333 45.226667 45 0 0-0.085333 0 151.253333 45.226667 45 0 0-21.205333-25.365334l66.986666-66.986666 13.589334-65.472-8.704-8.704-17.216-17.258667-17.066667-17.066667-37.397333 2.346667-30.122667 30.144-2.453333 37.077333 17.28 17.472-1.621334 31.701334-32.426666-32.426667-1.941334 1.962667-103.338666-121.792 224.170666-190.741334L915.626667 164.437333l1.834666-1.834666-1.493333 0.341333 0.042667-0.256-2.432 0.789333-222.784 51.349334-178.581334 210.453333-178.794666-210.773333L110.677333 163.178667l-2.432-0.789334 0.042667 0.256-1.493333-0.341333z" opacity=".05" p-id="5956"></path><path d="M106.794667 151.189333l1.834666 1.834667 49.834667 222.592 224.426667 190.997333-103.637334 122.154667-1.92-1.92-32.426666 32.426667-1.621334-31.722667 17.28-17.450667-2.389333-37.077333-30.165333-30.08-37.333334-2.346667h-0.042666l-17.088 17.088-17.216 17.258667h-0.042667l-8.618667 8.661333 13.546667 65.450667 66.986667 66.986667a45.226667 151.253333 45 0 0-21.034667 25.152 45.226667 151.253333 45 0 0-0.917333 1.216 45.226667 151.253333 45 0 0-7.04 9.322666 45.226667 151.253333 45 0 0-0.170667 0.256 45.226667 151.253333 45 0 0-24.618667 41.002667 45.226667 151.253333 45 0 0-0.085333 0.213333 45.226667 151.253333 45 0 0-4.288 10.709334 48.896 48.896 0 0 0-48.554667 12.245333 48.896 48.896 0 0 0 0 69.162667 48.896 48.896 0 0 0 69.12 0 48.896 48.896 0 0 0 12.501334-47.872 45.226667 151.253333 45 0 0 3.754666-1.322667 45.226667 151.253333 45 0 0 2.56-1.045333 45.226667 151.253333 45 0 0 6.528-2.837334 45.226667 151.253333 45 0 0 3.797334-1.877333 45.226667 151.253333 45 0 0 4.864-2.496h0.042666a45.226667 151.253333 45 0 0 36.501334-23.829333 45.226667 151.253333 45 0 0 1.130666-0.874667 45.226667 151.253333 45 0 0 7.381334-5.76 45.226667 151.253333 45 0 0 6.250666-4.992 45.226667 151.253333 45 0 0 15.274667-13.290667l67.541333 67.541334 65.386667 13.632 21.12-21.12 22.293333-21.76-2.410666-37.290667-30.421334-30.378667-36.586666-2.133333-17.792 17.130667-31.253334-2.090667 31.957334-32-1.152-1.173333 132.373333-112.661334 132.074667 112.362667-1.173334 1.173333 32 32-31.232 2.090667-17.834666-17.130667-36.586667 2.090667-30.421333 30.421333-2.410667 37.248 22.293333 21.76 21.12 21.162667 65.365334-13.632 67.541333-67.541333a151.253333 45.226667 45 0 0 15.637333 13.546666 151.253333 45.226667 45 0 0 4.949334 4.010667 151.253333 45.226667 45 0 0 9.088 7.082667 151.253333 45.226667 45 0 0 1.002666 0.704 151.253333 45.226667 45 0 0 10.368 7.488 151.253333 45.226667 45 0 0 30.208 18.261333 151.253333 45.226667 45 0 0 4.416 2.197333 151.253333 45.226667 45 0 0 5.461334 2.389334 151.253333 45.226667 45 0 0 3.328 1.386666 151.253333 45.226667 45 0 0 3.669333 1.28 48.896 48.896 0 0 0 12.458667 47.872 48.896 48.896 0 0 0 69.162666 0 48.896 48.896 0 0 0 0-69.162666 48.896 48.896 0 0 0-48.533333-12.266667 151.253333 45.226667 45 0 0-29.013333-51.861333 151.253333 45.226667 45 0 0-0.32-0.426667 151.253333 45.226667 45 0 0-7.573334-10.069333 151.253333 45.226667 45 0 0-0.085333 0 151.253333 45.226667 45 0 0-21.205333-25.386667l66.986666-66.986667 13.589334-65.450666-8.704-8.725334-17.216-17.237333-17.066667-17.088-37.397333 2.368-30.122667 30.122667-2.453333 37.098666 17.28 17.450667-1.621334 31.701333-32.426666-32.426666-1.941334 1.984-103.338666-121.813334 224.170666-190.72L915.626667 153.536c0.576-0.576 1.237333-1.28 1.834666-1.834667l-1.493333 0.341334 0.042667-0.256-2.432 0.789333-222.784 51.328-178.581334 210.453333-178.794666-210.752L110.677333 152.256 108.245333 151.466667l0.042667 0.256-1.493333-0.341334z" opacity=".1" p-id="5957"></path><path d="M106.794667 140.309333l1.834666 1.834667 49.834667 222.570667 224.426667 190.997333-103.637334 122.176-1.92-1.92-32.426666 32.426667-1.621334-31.722667 17.28-17.450667-2.389333-37.098666-30.165333-30.08-37.333334-2.346667h-0.042666l-17.088 17.109333-17.216 17.237334h-0.042667l-8.618667 8.661333 13.546667 65.472 66.986667 66.986667a45.226667 151.253333 45 0 0-21.034667 25.130666 45.226667 151.253333 45 0 0-0.917333 1.216 45.226667 151.253333 45 0 0-7.04 9.344 45.226667 151.253333 45 0 0-0.170667 0.256 45.226667 151.253333 45 0 0-24.618667 41.002667 45.226667 151.253333 45 0 0-0.085333 0.213333 45.226667 151.253333 45 0 0-4.288 10.688 48.896 48.896 0 0 0-48.554667 12.266667 48.896 48.896 0 0 0 0 69.162667 48.896 48.896 0 0 0 69.12 0 48.896 48.896 0 0 0 12.501334-47.872 45.226667 151.253333 45 0 0 3.754666-1.322667 45.226667 151.253333 45 0 0 2.56-1.066667 45.226667 151.253333 45 0 0 6.528-2.816 45.226667 151.253333 45 0 0 3.797334-1.877333 45.226667 151.253333 45 0 0 4.864-2.496h0.042666a45.226667 151.253333 45 0 0 36.501334-23.850667 45.226667 151.253333 45 0 0 1.130666-0.853333 45.226667 151.253333 45 0 0 7.381334-5.76 45.226667 151.253333 45 0 0 6.250666-4.992 45.226667 151.253333 45 0 0 15.274667-13.312l67.541333 67.541333 65.386667 13.653334 21.12-21.141334 22.293333-21.76-2.410666-37.290666-30.421334-30.357334-36.586666-2.133333-17.792 17.109333-31.253334-2.090666 31.957334-32-1.152-1.173334 132.373333-112.64 132.074667 112.362667-1.173334 1.173333 32 32-31.232 2.090667-17.834666-17.130667-36.586667 2.090667-30.421333 30.421333-2.410667 37.248 22.293333 21.76 21.12 21.162667 65.365334-13.632 67.541333-67.541333a151.253333 45.226667 45 0 0 15.637333 13.546666 151.253333 45.226667 45 0 0 4.949334 3.989334 151.253333 45.226667 45 0 0 9.088 7.082666 151.253333 45.226667 45 0 0 1.002666 0.704 151.253333 45.226667 45 0 0 10.368 7.509334 151.253333 45.226667 45 0 0 30.208 18.24 151.253333 45.226667 45 0 0 4.416 2.218666 151.253333 45.226667 45 0 0 5.461334 2.368 151.253333 45.226667 45 0 0 3.328 1.386667 151.253333 45.226667 45 0 0 3.669333 1.28 48.896 48.896 0 0 0 12.458667 47.872 48.896 48.896 0 0 0 69.162666 0 48.896 48.896 0 0 0 0-69.162667 48.896 48.896 0 0 0-48.533333-12.245333 151.253333 45.226667 45 0 0-29.013333-51.882667 151.253333 45.226667 45 0 0-0.32-0.405333 151.253333 45.226667 45 0 0-7.573334-10.090667 151.253333 45.226667 45 0 0-0.085333 0 151.253333 45.226667 45 0 0-21.205333-25.365333l66.986666-66.986667 13.589334-65.472-8.704-8.704-17.216-17.258666-17.066667-17.066667-37.397333 2.346667-30.122667 30.144-2.453333 37.077333 17.28 17.472-1.621334 31.701333-32.426666-32.426666-1.941334 1.962666-103.338666-121.792 224.170666-190.741333L915.626667 142.656l1.834666-1.834667-1.493333 0.341334 0.042667-0.256-2.432 0.789333L690.794667 193.066667l-178.581334 210.453333-178.794666-210.773333L110.677333 141.397333l-2.432-0.789333 0.042667 0.256-1.493333-0.341333z" opacity=".15" p-id="5958"></path><path d="M714.281204 801.098607a151.248525 45.232747 45 1 0 63.968764-63.968764 151.248525 45.232747 45 1 0-63.968764 63.968764Z" fill="#DBA05D" p-id="5959"></path><path d="M176.528656 334.576141l-68.152667-203.628135 224.322895 50.224124 470.637213 552.966741-90.316979 90.731912z" fill="#D6D7D9" p-id="5960"></path><path d="M771.818514 730.8367l-24.705774 100.223493a151.248525 45.232747 45 0 0 21.645647 16.839345l23.70302-95.90128a151.248525 45.232747 45 0 0-14.211439-14.902993 151.248525 45.232747 45 0 0-6.431454-6.258565zM809.093286 771.015999l-21.974135 89.262359a151.248525 45.232747 45 0 0 22.786711 12.309665l18.741119-75.863496a151.248525 45.232747 45 0 0-19.553695-25.708528zM844.552727 822.277454l-14.142283 57.364422a151.248525 45.232747 45 0 0 22.838578-3.578793 151.248525 45.232747 45 0 0-8.696295-53.785629z" fill="#A05A2C" p-id="5961"></path><path d="M867.443172 890.879631m-34.577711 34.577711a48.900267 48.900267 0 1 0 69.155421-69.155421 48.900267 48.900267 0 1 0-69.155421 69.155421Z" fill="#BB891D" p-id="5962"></path><path d="M108.306834 129.495742l52.229631 226.639602 552.499942 468.752728 45.486978-45.694444c-206.601818-203.835601-442.59469-441.730247-650.216551-649.697886z" fill="#A4A5AA" p-id="5963"></path><path d="M643.638943 769.598313l103.73313-103.733131 51.866565 51.866566-103.73313 103.73313z" fill="#D4AA00" p-id="5964"></path><path d="M695.505508 717.731748l51.866565 51.866565 51.866565-51.866565-51.866565-51.866566-51.866565 51.866566z" fill="#F3D056" p-id="5965"></path><path d="M321.253662 209.387542l404.939564 460.367633-27.454702 26.071593-509.986647-518.008676s96.990477 22.925022 132.501785 31.56945z" fill="#EFEFEF" opacity=".733" p-id="5966"></path><path d="M559.666973 818.923417l-2.385862 37.378504 34.352956 34.352955 0.051866-0.051866 8.679005 8.679005 65.490183-13.554462 197.559747-197.559747 13.606329-65.369162-21.126981-21.12698-21.766668-22.285335-37.240194 2.42044-30.428385 30.428385-2.074663 36.583217 17.115967 17.807521-2.455017 36.790684-97.682032 98.30443-36.998149 1.936351-17.461744-17.323432-37.084594 2.437728z" fill="#D4AA00" p-id="5967"></path><path d="M559.666973 818.923417l-2.368573 37.361215 34.335667 34.335667 0.034577-0.034578 8.679005 8.679005 65.472895-13.537173 98.59834-98.598341-34.370244-34.370244-48.685416 48.962038-36.980861 1.919063-17.496321-17.288855-37.067305 2.420439-30.151764 30.151764z" fill="#BB891D" p-id="5968"></path><path d="M871.99014 880.93854m-21.386313 21.386313a30.244815 30.244815 0 1 0 42.772627-42.772627 30.244815 30.244815 0 1 0-42.772627 42.772627Z" fill="#D4AA00" p-id="5969"></path><path d="M308.698045 800.005934a45.232747 151.248525 45 1 1-63.968764-63.968764 45.232747 151.248525 45 1 1 63.968764 63.968764Z" fill="#DBA05D" p-id="5970"></path><path d="M846.450593 333.483469l68.152667-203.628136-224.322895 50.224124-470.637213 552.966741 90.316979 90.731912z" fill="#D6D7D9" p-id="5971"></path><path d="M251.160735 729.744027l24.705774 100.223493a45.232747 151.248525 45 0 1-21.645647 16.839345l-23.70302-95.901279a45.232747 151.248525 45 0 1 14.211439-14.902993 45.232747 151.248525 45 0 1 6.431454-6.258566zM213.885963 769.923326l21.974135 89.262359a45.232747 151.248525 45 0 1-22.786711 12.309665l-18.741119-75.863496a45.232747 151.248525 45 0 1 19.553695-25.708528zM178.426522 821.184782l14.142283 57.364421a45.232747 151.248525 45 0 1-22.838577-3.578793 45.232747 151.248525 45 0 1 8.696294-53.785628z" fill="#A05A2C" p-id="5972"></path><path d="M155.536078 889.786959m34.57771 34.57771a48.900267 48.900267 0 1 1-69.155421-69.155421 48.900267 48.900267 0 1 1 69.155421 69.155421Z" fill="#BB891D" p-id="5973"></path><path d="M914.672415 128.40307l-52.229631 226.639601-552.499942 468.752728-45.486977-45.694444c206.601818-203.835601 442.59469-441.730247 650.21655-649.697885z" fill="#A4A5AA" p-id="5974"></path><path d="M379.340307 768.50564l-103.733131-103.73313-51.866565 51.866565 103.73313 103.73313z" fill="#D4AA00" p-id="5975"></path><path d="M327.473741 716.639075l-51.866565 51.866565-51.866565-51.866565 51.866565-51.866565 51.866565 51.866565z" fill="#F3D056" p-id="5976"></path><path d="M701.725587 208.294869l-404.939563 460.367633 27.454701 26.071594 509.986648-518.008676s-96.990477 22.925022-132.501786 31.569449z" fill="#EEEEEE" opacity=".733" p-id="5977"></path><path d="M463.312276 817.830744l2.385862 37.378504-34.352955 34.352955-0.051867-0.051866-8.679005 8.679005-65.490183-13.554462-197.559747-197.559747-13.606329-65.369161 21.126981-21.126981 21.766668-22.285334 37.240194 2.420439 30.428385 30.428385 2.074663 36.583218-17.115967 17.80752 2.455018 36.790684 97.682031 98.30443 36.99815 1.936352 17.461743-17.323433 37.084594 2.437728z" fill="#D4AA00" p-id="5978"></path><path d="M463.312276 817.830744l2.368573 37.361216-34.335666 34.335666-0.034578-0.034578-8.679005 8.679005-65.472895-13.537173-98.59834-98.598341 34.370244-34.370244 48.685416 48.962038 36.980861 1.919063 17.496321-17.288855 37.067305 2.420439 30.151764 30.151764z" fill="#BB891D" p-id="5979"></path><path d="M150.989109 879.845867m21.386313 21.386314a30.244815 30.244815 0 1 1-42.772627-42.772628 30.244815 30.244815 0 1 1 42.772627 42.772628Z" fill="#D4AA00" p-id="5980"></path></svg>